<svg width="12" height="9" viewBox="0 0 12 9" fill="none" xmlns="http://www.w3.org/2000/svg">
<path d="M9.6568 0.620692C9.83945 0.436333 10.0877 0.331772 10.3472 0.329861C10.6067 0.327949 10.8564 0.428842 11.0417 0.61049C11.2271 0.792138 11.333 1.03977 11.3363 1.29927C11.3396 1.55877 11.2401 1.80903 11.0595 1.99536L5.8328 8.52936C5.74301 8.62603 5.63466 8.70362 5.51421 8.75749C5.39377 8.81136 5.26371 8.84041 5.13179 8.8429C4.99988 8.84539 4.86881 8.82127 4.74642 8.77198C4.62404 8.72269 4.51284 8.64924 4.41946 8.55602L0.954131 5.09202C0.769982 4.90779 0.666563 4.65794 0.666626 4.39746C0.666689 4.13697 0.770227 3.88717 0.954464 3.70302C1.1387 3.51888 1.38854 3.41546 1.64903 3.41552C1.90952 3.41558 2.15932 3.51912 2.34346 3.70336L5.08413 6.44469L9.6308 0.651358C9.63906 0.640817 9.64796 0.630798 9.65746 0.621358L9.6568 0.620692Z" fill="white"/>
</svg>
